<?xml version="1.0" standalone="no"?>
<!DOCTYPE svg PUBLIC "-//W3C//DTD SVG 20010904//EN"
 "http://www.w3.org/TR/2001/REC-SVG-20010904/DTD/svg10.dtd">
<svg version="1.0" xmlns="http://www.w3.org/2000/svg"
 width="700.000000pt" height="700.000000pt" viewBox="0 0 700.000000 700.000000"
 preserveAspectRatio="xMidYMid meet">
<metadata>
Created by potrace 1.11, written by Peter Selinger 2001-2013
</metadata>
<g transform="translate(0.000000,700.000000) scale(0.100000,-0.100000)"
fill="#000000" stroke="none">
<path d="M3278 6996 c-1 -2 -42 -6 -89 -10 -47 -4 -95 -8 -105 -10 -10 -2 -45
-7 -78 -11 -96 -11 -279 -48 -365 -72 -29 -8 -59 -16 -65 -17 -30 -6 -109 -30
-188 -57 -825 -277 -1525 -860 -1950 -1624 -49 -87 -148 -289 -148 -301 0 -2
-9 -23 -20 -47 -57 -123 -157 -435 -186 -582 -2 -11 -10 -54 -19 -95 -29 -147
-36 -200 -52 -370 -15 -164 -8 -592 12 -711 2 -13 6 -46 9 -74 21 -182 109
-547 165 -680 5 -11 26 -65 46 -120 65 -172 218 -471 315 -615 204 -305 440
-572 685 -775 33 -28 62 -52 65 -55 31 -33 389 -280 407 -280 3 0 14 -6 22
-14 26 -22 298 -158 408 -204 305 -126 609 -207 933 -247 244 -31 692 -26 907
9 21 4 52 8 68 10 186 23 511 114 750 208 115 45 423 197 462 228 14 11 30 20
35 20 5 0 14 5 21 10 7 6 64 44 127 86 240 159 474 363 659 573 31 35 63 72
72 81 40 42 189 244 254 345 219 336 406 779 481 1140 16 79 54 301 59 350 4
33 9 71 11 85 9 48 11 526 4 605 -17 177 -22 220 -25 225 -2 3 -6 30 -10 60
-4 30 -22 123 -40 205 -53 232 -102 385 -197 610 -367 865 -1093 1563 -1973
1897 -220 83 -530 165 -700 184 -27 3 -53 8 -56 9 -3 2 -35 7 -71 10 -35 4
-78 9 -94 11 -32 5 -540 14 -546 10z m419 -970 c579 -44 1052 -262 1308 -601
134 -178 243 -422 270 -606 4 -24 8 -46 10 -49 2 -3 7 -47 10 -98 6 -74 5 -92
-6 -93 -8 0 -21 -2 -29 -4 -9 -1 -70 -6 -135 -10 -66 -4 -131 -8 -145 -10 -22
-3 -196 -15 -260 -19 -25 -1 -29 7 -44 109 -22 137 -85 296 -168 418 -132 194
-365 332 -648 382 -220 38 -541 38 -768 0 -241 -41 -414 -124 -550 -264 -120
-123 -179 -254 -189 -416 -8 -142 37 -305 108 -386 11 -13 29 -33 38 -44 76
-94 241 -176 546 -271 129 -40 224 -64 690 -176 418 -99 753 -203 914 -282
434 -213 679 -495 769 -886 33 -140 36 -403 8 -540 -78 -372 -296 -691 -611
-893 -114 -73 -117 -75 -150 -91 -16 -7 -59 -27 -95 -44 -162 -75 -367 -132
-600 -167 -156 -23 -610 -23 -725 0 -11 2 -45 6 -75 9 -44 4 -200 30 -245 40
-5 1 -26 6 -45 10 -322 70 -637 236 -847 444 -290 286 -447 635 -478 1064 -5
66 -10 63 110 73 44 3 105 8 135 11 30 2 73 6 95 9 22 2 81 7 130 11 50 3 98
8 107 10 12 2 19 -5 22 -19 3 -12 12 -62 21 -112 36 -198 119 -396 213 -515
154 -192 407 -343 712 -423 275 -73 629 -83 912 -26 443 89 723 310 807 640
26 103 22 277 -9 369 -96 285 -314 439 -825 583 -98 27 -230 61 -630 162 -143
36 -267 67 -275 70 -8 2 -42 11 -75 20 -118 31 -415 135 -499 175 -493 230
-751 594 -761 1070 -4 170 10 267 61 419 86 259 240 466 474 635 183 132 530
259 800 292 25 3 51 7 58 10 8 2 64 7 125 10 62 4 113 7 114 8 5 4 247 -2 320
-8z"/>
</g>
</svg>
