<?xml version="1.0" encoding="utf-8"?>
<!-- Generator: Adobe Illustrator 19.0.0, SVG Export Plug-In . SVG Version: 6.00 Build 0)  -->
<svg version="1.1" xmlns="http://www.w3.org/2000/svg" xmlns:xlink="http://www.w3.org/1999/xlink" x="0px" y="0px"
	 viewBox="0 0 496.8 496.8" style="enable-background:new 0 0 496.8 496.8;" xml:space="preserve">
<style type="text/css">
	.st0{fill:#C1A97A;stroke:#C1A97A;stroke-miterlimit:10;}
</style>
<g id="CIRCLE">
</g>
<g id="S">
	<path id="XMLID_6_" class="st0" d="M248.4,0.5C111.5,0.5,0.5,111.5,0.5,248.4s111,247.9,247.9,247.9s247.9-111,247.9-247.9
		S385.3,0.5,248.4,0.5z M371.4,376.8c-10.6,16.4-25.9,29.2-45.8,38.3c-19.9,9.1-42.3,13.7-67.2,13.7c-31.6,0-58-4.6-79.4-13.8
		c-21.3-9.2-38.1-23.1-50.2-41.5c-12.1-18.5-18.5-39.4-19.2-62.7l43.6-3.8c2.1,17.5,6.9,31.8,14.4,43c7.5,11.2,19.2,20.2,35.1,27.1
		c15.9,6.9,33.7,10.4,53.6,10.4c17.6,0,33.2-2.6,46.7-7.9c13.5-5.2,23.5-12.4,30.1-21.5c6.6-9.1,9.9-19.1,9.9-29.9
		c0-10.9-3.2-20.5-9.5-28.7c-6.3-8.2-16.8-15-31.4-20.6c-9.4-3.6-30.1-9.3-62.1-17c-32.1-7.7-54.5-15-67.4-21.8
		c-16.7-8.7-29.1-19.6-37.3-32.5c-8.2-12.9-12.3-27.4-12.3-43.4c0-17.6,5-34.1,15-49.4c10-15.3,24.6-26.9,43.8-34.9
		c19.2-7.9,40.5-11.9,64-11.9c25.9,0,48.7,4.2,68.4,12.5c19.8,8.3,35,20.6,45.6,36.8c10.6,16.2,16.3,34.5,17.1,55l-44.3,3.3
		c-2.4-22.1-10.4-38.7-24.2-50c-13.7-11.3-34-16.9-60.8-16.9c-27.9,0-48.3,5.1-61.1,15.4c-12.8,10.2-19.2,22.6-19.2,37
		c0,12.5,4.5,22.9,13.6,30.9c8.9,8.1,32.1,16.4,69.6,24.9c37.5,8.5,63.3,15.9,77.2,22.3c20.3,9.4,35.3,21.2,45,35.6
		c9.7,14.4,14.5,30.9,14.5,49.6C387.3,342.9,382,360.4,371.4,376.8z"/>
</g>
</svg>
